inDegrees=yes
name=ik_02012121_23339._orientations
DataType=double
version=3
OpenSimVersion=4.1
endheader
time	pelvis_tilt	pelvis_list	pelvis_rotation	pelvis_tx	pelvis_ty	pelvis_tz	hip_flexion_r	hip_adduction_r	hip_rotation_r	knee_angle_r	knee_angle_r_beta	ankle_angle_r	subtalar_angle_r	mtp_angle_r	hip_flexion_l	hip_adduction_l	hip_rotation_l	knee_angle_l	knee_angle_l_beta	ankle_angle_l	subtalar_angle_l	mtp_angle_l	lumbar_extension	lumbar_bending	lumbar_rotation	arm_flex_r	arm_add_r	arm_rot_r	elbow_flex_r	pro_sup_r	wrist_flex_r	wrist_dev_r	arm_flex_l	arm_add_l	arm_rot_l	elbow_flex_l	pro_sup_l	wrist_flex_l	wrist_dev_l
34.17333333333717	-27.96439200128057	4.238249334542973	-3.20212115542161	0	0.9399999999999999	0	34.72238475010806	-10.08944662249394	0.02283863192029852	10.09976051769475	0.1762740746967004	-4.99999998769017	0	0	45.0228695070717	-10.00000325103387	0	60.06171593920891	1.048274697536754	-4.99999998769017	0	0	0	0	0	0	-15.52791810760011	0	74.9607451398125	45.00003554598137	0	0	0	-15.52791810760011	0	74.9607451398125	45.00003554598137	0	0
34.17777777778161	-28.06146163326866	4.300945483440327	-3.046370796237141	0	0.9399999999999999	0	34.6611602764403	-10.06005359195148	0.04951345911398392	9.948375703082716	0.1736319112441992	-4.999999987581352	0	0	45.0228654985305	-10.00000324904113	0	60.0617074490346	1.048274549355258	-4.999999987581352	0	0	0	0	0	0	-15.52787066082938	0	74.96075205118696	45.00003552892248	0	0	0	-15.52787066082938	0	74.96075205118696	45.00003552892248	0	0
34.18222222222606	-28.16009857034519	4.361608980718992	-2.888244282492022	0	0.9399999999999999	0	34.5989787393854	-10.03078125343702	0.07685602699980765	9.794457894304179	0.1709455387035587	-4.999999987471914	0	0	45.0228614648266	-10.00000324703669	0	60.06169890546881	1.048274400241905	-4.999999987471914	0	0	0	0	0	0	-15.52782291302267	0	74.96075900594604	45.00003551176137	0	0	0	-15.52782291302267	0	74.96075900594604	45.00003551176137	0	0
34.1866666666705	-28.25530091993334	4.420155108336991	-2.729515280171569	0	0.9399999999999999	0	34.53843736346628	-10.00139027104621	0.1046219802021184	9.645487399010603	0.1683455130723591	-4.999999987362191	0	0	45.02285741878795	-10.00000324502681	0	60.06169033608251	1.048274250677899	-4.999999987362191	0	0	0	0	0	0	-15.52777501760469	0	74.9607659819722	45.0000354945518	0	0	0	-15.52777501760469	0	74.9607659819722	45.0000354945518	0	0
34.19111111111495	-28.33281432777542	4.468766968184188	-2.568646905416771	0	0.9399999999999999	0	34.48692299609463	-9.971450698391642	0.1342996931957304	9.522620947670703	0.1662010889562364	-4.999999987253143	0	0	45.02285339654082	-10.00000324302894	0	60.06168181888705	1.048274102024795	-4.999999987253143	0	0	0	0	0	0	-15.52772740827401	0	74.96077291697786	45.00003547744407	0	0	0	-15.52772740827401	0	74.96077291697786	45.00003547744407	0	0
34.19555555555939	-28.4084751231068	4.538482089548433	-2.433937450720691	0	0.9399999999999999	0	34.43168712754245	-9.944242705732536	0.1554899740325794	9.364225619248574	0.1634365689554925	-4.999999987159466	0	0	45.0228499298829	-10.00000324131164	0	60.06167446546926	1.048273973683444	-4.999999987159466	0	0	0	0	0	0	-15.52768632181247	0	74.96077889405781	45.00003546273078	0	0	0	-15.52768632181247	0	74.96077889405781	45.00003546273078	0	0
34.20000000000384	-28.48395060152224	4.610146670433939	-2.295989332903903	0	0.9399999999999999	0	34.37650445309721	-9.916630806843518	0.177687869787083	9.201054543603648	0.1605886964414678	-4.999999987061188	0	0	45.02284629246	-10.00000323950977	0	60.0616667518294	1.048273839055031	-4.999999987061188	0	0	0	0	0	0	-15.52764321720372	0	74.96078516556427	45.00003544729227	0	0	0	-15.52764321720372	0	74.96078516556427	45.00003544729227	0	0
34.20444444444828	-28.56171514596282	4.682524380584095	-2.153491844331202	0	0.9399999999999999	0	34.32014841114501	-9.888376394181114	0.2009517331422479	9.03490323855759	0.1576888091119286	-4.999999986962115	0	0	45.02284262384111	-10.00000323769302	0	60.06165897224449	1.04827370327566	-4.999999986962115	0	0	0	0	0	0	-15.52759974142947	0	74.96079149085766	45.00003543172468	0	0	0	-15.52759974142947	0	74.96079149085766	45.00003543172468	0	0
34.20888888889273	-28.64536553347005	4.756351294584484	-2.007789389734898	0	0.9399999999999999	0	34.25879559534894	-9.859433377619814	0.2239580432838988	8.858954770596506	0.154617929032168	-4.999999986839987	0	0	45.02283810879329	-10.0000032354539	0	60.06164941156465	1.048273536410318	-4.999999986839987	0	0	0	0	0	0	-15.52754628706125	0	74.96079927553157	45.00003541254182	0	0	0	-15.52754628706125	0	74.96079927553157	45.00003541254182	0	0
34.21333333333718	-28.71768961675501	4.822733585632998	-1.852849170202868	0	0.9399999999999999	0	34.20477762891559	-9.828488612483991	0.2505677660445643	8.713048962003857	0.1520713922744416	-4.99999998674484	0	0	45.02283458215469	-10.00000323370864	0	60.06164193351951	1.048273405893809	-4.99999998674484	0	0	0	0	0	0	-15.5275044907506	0	74.96080535602793	45.00003539758357	0	0	0	-15.5275044907506	0	74.96080535602793	45.00003539758357	0	0
34.21777777778162	-28.79928998427389	4.88200654057847	-1.686173904471915	0	0.9399999999999999	0	34.14382629567098	-9.797340283648431	0.2798388441367144	8.545530168825415	0.1491476377745104	-4.999999986627372	0	0	45.02283023471247	-10.00000323155433	0	60.06163272743331	1.048273245217293	-4.999999986627372	0	0	0	0	0	0	-15.52745301351145	0	74.96081285172268	45.00003537912294	0	0	0	-15.52745301351145	0	74.96081285172268	45.00003537912294	0	0
34.22222222222607	-28.87611979259119	4.93918591496913	-1.519508114934466	0	0.9399999999999999	0	34.08681479206591	-9.765693754215709	0.309599285579392	8.393884654815983	0.1465009242591666	-4.999999986510089	0	0	45.02282589205626	-10.00000322940302	0	60.06162353229076	1.04827308473178	-4.999999986510089	0	0	0	0	0	0	-15.52740159295687	0	74.96082033916555	45.00003536068607	0	0	0	-15.52740159295687	0	74.96082033916555	45.00003536068607	0	0
34.22666666667051	-28.93213875675447	4.982545311848117	-1.348082088631206	0	0.9399999999999999	0	34.04177418427369	-9.732773339985425	0.342369884086042	8.275170454497497	0.1444289705947369	-4.999999986409008	0	0	45.02282214459165	-10.00000322754834	0	60.06161559338425	1.048272946171723	-4.999999986409008	0	0	0	0	0	0	-15.52735720151326	0	74.9608268004017	45.00003534478801	0	0	0	-15.52735720151326	0	74.9608268004017	45.00003534478801	0	0
34.23111111111496	-28.97680581377922	5.014415435329297	-1.168966183763687	0	0.9399999999999999	0	34.00835647295892	-9.701662660029656	0.3794437081293996	8.206773611255727	0.1432352204821976	-4.999999986289789	0	0	45.02281773003059	-10.00000322536113	0	60.0616062520138	1.048272783134052	-4.999999986289789	0	0	0	0	0	0	-15.52730494770914	0	74.96083441182019	45.00003532604232	0	0	0	-15.52730494770914	0	74.96083441182019	45.00003532604232	0	0
34.2355555555594	-29.02205990763746	5.042021093081735	-0.9848622872743943	0	0.9399999999999999	0	33.97406294269359	-9.671253375463598	0.4186816670101856	8.134298250484138	0.1419702868101626	-4.99999998617224	0	0	45.02281337373707	-10.00000322320407	0	60.06159703281332	1.048272622228649	-4.99999998617224	0	0	0	0	0	0	-15.52725337578245	0	74.96084192277611	45.00003530755189	0	0	0	-15.52725337578245	0	74.96084192277611	45.00003530755189	0	0
34.24000000000385	-29.05311680034201	5.065901270289266	-0.7974325953750776	0	0.9399999999999999	0	33.95387778022393	-9.6391788302333	0.4573058782561501	8.12862999824498	0.1418713571457558	-4.99999998616213	0	0	45.02281296860887	-10.00000322301615	0	60.0615961314283	1.048272606496513	-4.99999998616213	0	0	0	0	0	0	-15.52724840354825	0	74.96084262128291	45.00003530592208	0	-2.901061486508395e-35	0	-15.52724840354825	0	74.96084262128291	45.00003530592208	0	-2.901061486508395e-35
34.24444444444829	-29.10976491759426	5.084232789435459	-0.5947027677346949	0	0.9399999999999999	0	33.91217034883837	-9.606612411081716	0.5005612814583921	8.044746207964616	0.140407308816311	-4.999999986062687	0	0	45.02280927526663	-10.00000322119056	0	60.06158830683707	1.048272469931633	-4.999999986062687	0	0	0	0	0	0	-15.52720464359051	0	74.96084898920334	45.00003529026737	0	0	0	-15.52720464359051	0	74.96084898920334	45.00003529026737	0	0
34.24888888889274	-29.14730633363191	5.096606716600368	-0.3951629738102526	0	0.9399999999999999	0	33.88958486274597	-9.575157395896516	0.5436515717968294	8.042158326937567	0.1403621417717391	-4.999999986052686	0	0	45.02280887382878	-10.00000322100457	0	60.06158741314754	1.048272454333808	-4.999999986052686	0	0	0	0	0	0	-15.52719971429653	0	74.9608496813474	45.00003528865386	0	0	0	-15.52719971429653	0	74.9608496813474	45.00003528865386	0	0
34.25333333333718	-29.20842213188233	5.11195648020865	-0.1906772096693881	0	0.9399999999999999	0	33.8468668518594	-9.54258614823457	0.5874016532257895	7.960110359314134	0.1389301345921405	-4.999999985933339	0	0	45.02280444569836	-10.00000321881379	0	60.06157804176616	1.048272290772348	-4.999999985933339	0	0	0	0	0	0	-15.52714728475016	0	74.96085731616174	45.00003526986954	0	0	0	-15.52714728475016	0	74.96085731616174	45.00003526986954	0	0
34.25777777778163	-29.25383106709623	5.122859498619368	0.005612876410846493	0	0.9399999999999999	0	33.82190784741672	-9.511785338937214	0.6302806369477222	7.959967033924056	0.138927633092182	-4.999999985923425	0	0	45.02280404717749	-10.00000321862935	0	60.06157715417312	1.048272275280927	-4.999999985923425	0	0	0	0	0	0	-15.52714238934609	0	74.96085800327643	45.00003526826904	0	9.159717659527918e-35	0	-15.52714238934609	0	74.96085800327643	45.00003526826904	0	9.159717659527918e-35
